# Max2Obj Version 4.0 Mar 10th, 2001
#
# object Cylinder01 to come ...
#
v  0.000 -23.556 -0.000
v  4.566 -16.061 -0.000
v  3.229 -16.061 -3.229
v  0.000 -16.061 -4.566
v  -3.229 -16.061 -3.229
v  -4.566 -16.061 -0.000
v  -3.229 -16.061 3.229
v  0.000 -16.061 4.566
v  3.229 -16.061 3.229
v  4.004 -14.760 -0.000
v  2.831 -14.760 -2.831
v  0.000 -14.760 -4.004
v  -2.831 -14.760 -2.831
v  -4.004 -14.760 -0.000
v  -2.831 -14.760 2.831
v  0.000 -14.760 4.004
v  2.831 -14.760 2.831
v  6.275 -9.114 -0.000
v  4.437 -9.114 -4.437
v  -0.000 -9.114 -6.275
v  -4.437 -9.114 -4.437
v  -6.275 -9.114 -0.000
v  -4.437 -9.114 4.437
v  0.000 -9.114 6.275
v  4.437 -9.114 4.437
v  10.000 -2.749 -0.000
v  7.071 -2.749 -7.071
v  -0.000 -2.749 -10.000
v  -7.071 -2.749 -7.071
v  -10.000 -2.749 -0.000
v  -7.071 -2.749 7.071
v  0.000 -2.749 10.000
v  7.071 -2.749 7.071
v  10.000 3.502 -0.000
v  7.071 3.502 -7.071
v  -0.000 3.502 -10.000
v  -7.071 3.502 -7.071
v  -10.000 3.502 -0.000
v  -7.071 3.502 7.071
v  0.000 3.502 10.000
v  7.071 3.502 7.071
v  7.990 8.079 -0.000
v  5.650 8.079 -5.650
v  -0.000 8.079 -7.990
v  -5.650 8.079 -5.650
v  -7.990 8.079 -0.000
v  -5.650 8.079 5.650
v  0.000 8.079 7.990
v  5.650 8.079 5.650
v  -0.000 11.502 -0.000
v  4.566 -22.415 -0.000
v  3.229 -22.415 -3.229
v  0.000 -22.415 -4.566
v  -3.229 -22.415 -3.229
v  -4.566 -22.415 -0.000
v  -3.229 -22.415 3.229
v  0.000 -22.415 4.566
v  3.229 -22.415 3.229
# 58 vertices

vt  0.500 0.000 0.000
vt  0.750 0.000 1.000
vt  0.875 0.000 1.000
vt  0.000 0.000 1.000
vt  0.125 0.000 1.000
vt  0.250 0.000 1.000
vt  0.375 0.000 1.000
vt  0.500 0.000 1.000
vt  0.625 0.000 1.000
vt  0.750 0.200 1.000
vt  0.875 0.200 1.000
vt  0.000 0.200 1.000
vt  0.125 0.200 1.000
vt  0.250 0.200 1.000
vt  0.375 0.200 1.000
vt  0.500 0.200 1.000
vt  0.625 0.200 1.000
vt  0.750 0.400 1.000
vt  0.875 0.400 1.000
vt  0.000 0.400 1.000
vt  0.125 0.400 1.000
vt  0.250 0.400 1.000
vt  0.375 0.400 1.000
vt  0.500 0.400 1.000
vt  0.625 0.400 1.000
vt  0.750 0.600 1.000
vt  0.875 0.600 1.000
vt  0.000 0.600 1.000
vt  0.125 0.600 1.000
vt  0.250 0.600 1.000
vt  0.375 0.600 1.000
vt  0.500 0.600 1.000
vt  0.625 0.600 1.000
vt  0.750 0.800 1.000
vt  0.875 0.800 1.000
vt  0.000 0.800 1.000
vt  0.125 0.800 1.000
vt  0.250 0.800 1.000
vt  0.375 0.800 1.000
vt  0.500 0.800 1.000
vt  0.625 0.800 1.000
vt  0.750 1.000 1.000
vt  0.875 1.000 1.000
vt  0.000 1.000 1.000
vt  0.125 1.000 1.000
vt  0.250 1.000 1.000
vt  0.375 1.000 1.000
vt  0.500 1.000 1.000
vt  0.625 1.000 1.000
vt  0.500 1.000 0.000
vt  -0.125 0.000 1.000
vt  -0.125 0.000 1.000
vt  -0.125 0.200 1.000
vt  -0.125 0.000 1.000
vt  -0.125 0.200 1.000
vt  -0.125 0.400 1.000
vt  -0.125 0.200 1.000
vt  -0.125 0.400 1.000
vt  -0.125 0.600 1.000
vt  -0.125 0.400 1.000
vt  -0.125 0.600 1.000
vt  -0.125 0.800 1.000
vt  -0.125 0.600 1.000
vt  -0.125 0.800 1.000
vt  -0.125 1.000 1.000
vt  -0.125 0.800 1.000
vt  -0.125 1.000 1.000
vt  0.750 0.000 1.000
vt  0.875 0.000 1.000
vt  0.500 0.000 0.000
vt  0.625 0.000 1.000
vt  -0.125 0.000 1.000
vt  0.000 0.000 1.000
vt  0.125 0.000 1.000
vt  0.250 0.000 1.000
vt  0.375 0.000 1.000
vt  0.500 0.000 1.000
# 77 texture vertices

vn  -0.000 -1.000 0.000
vn  0.918 0.397 -0.000
vn  0.649 0.397 -0.649
vn  -0.000 0.397 -0.918
vn  -0.649 0.397 -0.649
vn  -0.918 0.397 0.000
vn  -0.649 0.397 0.649
vn  0.000 0.397 0.918
vn  0.649 0.397 0.649
vn  1.000 0.014 -0.000
vn  0.707 0.014 -0.707
vn  -0.000 0.014 -1.000
vn  -0.707 0.014 -0.707
vn  -1.000 0.014 0.000
vn  -0.707 0.014 0.707
vn  0.000 0.014 1.000
vn  0.707 0.014 0.707
vn  0.894 -0.448 -0.000
vn  0.632 -0.448 -0.632
vn  -0.000 -0.448 -0.894
vn  -0.632 -0.448 -0.632
vn  -0.894 -0.448 0.000
vn  -0.632 -0.448 0.632
vn  0.000 -0.448 0.894
vn  0.632 -0.448 0.632
vn  0.969 -0.247 -0.000
vn  0.685 -0.247 -0.685
vn  -0.000 -0.247 -0.969
vn  -0.685 -0.247 -0.685
vn  -0.969 -0.247 0.000
vn  -0.685 -0.247 0.685
vn  0.000 -0.247 0.969
vn  0.685 -0.247 0.685
vn  0.981 0.196 -0.000
vn  0.693 0.196 -0.693
vn  -0.000 0.196 -0.981
vn  -0.693 0.196 -0.693
vn  -0.981 0.196 0.000
vn  -0.693 0.196 0.693
vn  0.000 0.196 0.981
vn  0.693 0.196 0.693
vn  2.954 1.297 -0.000
vn  2.089 1.297 -2.089
vn  -0.000 1.297 -2.954
vn  -2.089 1.297 -2.089
vn  -2.954 1.297 0.000
vn  -2.089 1.297 2.089
vn  0.000 1.297 2.954
vn  2.089 1.297 2.089
vn  -0.000 1.000 -0.000
vn  0.243 -0.970 -0.000
vn  0.171 -0.970 -0.171
vn  -0.000 -0.970 -0.243
vn  -0.171 -0.970 -0.171
vn  -0.243 -0.970 0.000
vn  -0.171 -0.970 0.171
vn  0.000 -0.970 0.243
vn  0.171 -0.970 0.171
# 58 vertex normals

g Cylinder01
f 1/1/1 52/69/52 51/68/51
f 1/1/1 53/73/53 52/72/52
f 1/1/1 54/74/54 53/73/53
f 1/1/1 55/75/55 54/74/54
f 1/1/1 56/76/56 55/75/55
f 1/1/1 57/77/57 56/76/56
f 1/1/1 58/71/58 57/77/57
f 1/1/1 51/68/51 58/71/58
f 2/2/2 11/11/11 10/10/10
f 2/2/2 3/3/3 11/11/11
f 3/52/3 12/12/12 11/53/11
f 3/54/3 4/4/4 12/12/12
f 4/4/4 13/13/13 12/12/12
f 4/4/4 5/5/5 13/13/13
f 5/5/5 14/14/14 13/13/13
f 5/5/5 6/6/6 14/14/14
f 6/6/6 15/15/15 14/14/14
f 6/6/6 7/7/7 15/15/15
f 7/7/7 16/16/16 15/15/15
f 7/7/7 8/8/8 16/16/16
f 8/8/8 17/17/17 16/16/16
f 8/8/8 9/9/9 17/17/17
f 9/9/9 10/10/10 17/17/17
f 9/9/9 2/2/2 10/10/10
f 10/10/10 19/19/19 18/18/18
f 10/10/10 11/11/11 19/19/19
f 11/55/11 20/20/20 19/56/19
f 11/57/11 12/12/12 20/20/20
f 12/12/12 21/21/21 20/20/20
f 12/12/12 13/13/13 21/21/21
f 13/13/13 22/22/22 21/21/21
f 13/13/13 14/14/14 22/22/22
f 14/14/14 23/23/23 22/22/22
f 14/14/14 15/15/15 23/23/23
f 15/15/15 24/24/24 23/23/23
f 15/15/15 16/16/16 24/24/24
f 16/16/16 25/25/25 24/24/24
f 16/16/16 17/17/17 25/25/25
f 17/17/17 18/18/18 25/25/25
f 17/17/17 10/10/10 18/18/18
f 18/18/18 27/27/27 26/26/26
f 18/18/18 19/19/19 27/27/27
f 19/58/19 28/28/28 27/59/27
f 19/60/19 20/20/20 28/28/28
f 20/20/20 29/29/29 28/28/28
f 20/20/20 21/21/21 29/29/29
f 21/21/21 30/30/30 29/29/29
f 21/21/21 22/22/22 30/30/30
f 22/22/22 31/31/31 30/30/30
f 22/22/22 23/23/23 31/31/31
f 23/23/23 32/32/32 31/31/31
f 23/23/23 24/24/24 32/32/32
f 24/24/24 33/33/33 32/32/32
f 24/24/24 25/25/25 33/33/33
f 25/25/25 26/26/26 33/33/33
f 25/25/25 18/18/18 26/26/26
f 26/26/26 35/35/35 34/34/34
f 26/26/26 27/27/27 35/35/35
f 27/61/27 36/36/36 35/62/35
f 27/63/27 28/28/28 36/36/36
f 28/28/28 37/37/37 36/36/36
f 28/28/28 29/29/29 37/37/37
f 29/29/29 38/38/38 37/37/37
f 29/29/29 30/30/30 38/38/38
f 30/30/30 39/39/39 38/38/38
f 30/30/30 31/31/31 39/39/39
f 31/31/31 40/40/40 39/39/39
f 31/31/31 32/32/32 40/40/40
f 32/32/32 41/41/41 40/40/40
f 32/32/32 33/33/33 41/41/41
f 33/33/33 34/34/34 41/41/41
f 33/33/33 26/26/26 34/34/34
f 34/34/34 43/43/43 42/42/42
f 34/34/34 35/35/35 43/43/43
f 35/64/35 44/44/44 43/65/43
f 35/66/35 36/36/36 44/44/44
f 36/36/36 45/45/45 44/44/44
f 36/36/36 37/37/37 45/45/45
f 37/37/37 46/46/46 45/45/45
f 37/37/37 38/38/38 46/46/46
f 38/38/38 47/47/47 46/46/46
f 38/38/38 39/39/39 47/47/47
f 39/39/39 48/48/48 47/47/47
f 39/39/39 40/40/40 48/48/48
f 40/40/40 49/49/49 48/48/48
f 40/40/40 41/41/41 49/49/49
f 41/41/41 42/42/42 49/49/49
f 41/41/41 34/34/34 42/42/42
f 50/50/50 42/42/42 43/43/43
f 50/50/50 43/67/43 44/44/44
f 50/50/50 44/44/44 45/45/45
f 50/50/50 45/45/45 46/46/46
f 50/50/50 46/46/46 47/47/47
f 50/50/50 47/47/47 48/48/48
f 50/50/50 48/48/48 49/49/49
f 50/50/50 49/49/49 42/42/42
f 3/3/3 2/2/2 51/68/51
f 51/68/51 52/69/52 3/3/3
f 4/4/4 3/51/3 52/72/52
f 52/72/52 53/73/53 4/4/4
f 5/5/5 4/4/4 53/73/53
f 53/73/53 54/74/54 5/5/5
f 6/6/6 5/5/5 54/74/54
f 54/74/54 55/75/55 6/6/6
f 7/7/7 6/6/6 55/75/55
f 55/75/55 56/76/56 7/7/7
f 8/8/8 7/7/7 56/76/56
f 56/76/56 57/77/57 8/8/8
f 9/9/9 8/8/8 57/77/57
f 57/77/57 58/71/58 9/9/9
f 2/2/2 9/9/9 58/71/58
f 58/71/58 51/68/51 2/2/2
# 112 faces

g
